# xmcd
# Copyright (C) 1995-1998 Ti Kan
#
# Track frame offsets:
#       150
#       5017
#       23569
#       37549
#       56165
#       73538
#       90320
#       106989
#       107814
#       111470
#       116585
#       131752
#       145289
#       158294
#       160469
#       176660
#       193288
#
# Disc length: 3615 seconds
#
# Revision: 0
# Processed by: cddbd v1.5.2PL0 Copyright (c) Steve Scherf et al.
# Submitted via: CD-Import v1.0
#
DISCID=e20e1d11
DTITLE=Gimmd - Unmensch
DYEAR=1900
DGENRE=
TTITLE0=Intro
TTITLE1=Morgarot
TTITLE2=Vampir
TTITLE3=Antihelda
TTITLE4=Besti Wo Je Hätz Gitz Feat.alidebengali and Orange (Obk)
TTITLE5=Unmensch
TTITLE6=Alpha Beta
TTITLE7=Dä Stinkt Skit
TTITLE8=Dws 1 Feat.gerardmc
TTITLE9=Dws 2
TTITLE10=Vize-Ex Miss Schweiz
TTITLE11=Qrct 7000
TTITLE12=Megaphon
TTITLE13=Brittany Murphy Skit
TTITLE14=I Warta Feat. Momo
TTITLE15=I Bin Nid Schuld Feat. Semantik
TTITLE16=Cazzoman's Drive By Fucking
EXTD=
EXTT0=
EXTT1=
EXTT2=
EXTT3=
EXTT4=
EXTT5=
EXTT6=
EXTT7=
EXTT8=
EXTT9=
EXTT10=
EXTT11=
EXTT12=
EXTT13=
EXTT14=
EXTT15=
EXTT16=
PLAYORDER=
